HIERARCHY
ROOT Hips
{
	OFFSET -3.958830 18.904000 13.208200
	CHANNELS 6 Xposition Yposition Zposition Zrotation Yrotation Xrotation 
	JOINT LHipJoint
	{
		OFFSET 0.000000 0.000000 0.000000
		CHANNELS 3 Zrotation Yrotation Xrotation
		JOINT LeftUpLeg
		{
			OFFSET 1.800000 -1.400000 0.085000
			CHANNELS 3 Zrotation Yrotation Xrotation
			JOINT LeftLeg
			{
				OFFSET 2.215000 -6.000000 0.000000
				CHANNELS 3 Zrotation Yrotation Xrotation
				JOINT LeftFoot
				{
					OFFSET 2.500000 -6.900000 0.000000
					CHANNELS 3 Zrotation Yrotation Xrotation
					JOINT LeftToeBase
					{
						OFFSET 0.200000 -0.500000 1.950000
						CHANNELS 3 Zrotation Yrotation Xrotation
						End Site
						{
							OFFSET 0.000000 0.000000 0.000000
						}
					}
				}
			}
		}
	}
	JOINT RHipJoint
	{
		OFFSET 0.000000 0.000000 0.000000
		CHANNELS 3 Zrotation Yrotation Xrotation
		JOINT RightUpLeg
		{
			OFFSET -1.800000 -1.400000 0.085000
			CHANNELS 3 Zrotation Yrotation Xrotation
			JOINT RightLeg
			{
				OFFSET -2.215000 -6.000000 0.000000
				CHANNELS 3 Zrotation Yrotation Xrotation
				JOINT RightFoot
				{
					OFFSET -2.500000 -6.900000 0.000000
					CHANNELS 3 Zrotation Yrotation Xrotation
					JOINT RightToeBase
					{
						OFFSET -0.200000 -0.500000 1.950000
						CHANNELS 3 Zrotation Yrotation Xrotation
						End Site
						{
							OFFSET 0.000000 0.000000 0.000000
						}
					}
				}
			}
		}
	}
	JOINT LowerBack
	{
		OFFSET 0.000000 0.000000 0.000000
		CHANNELS 3 Zrotation Yrotation Xrotation
		JOINT Spine
		{
			OFFSET -0.087000 1.940000 -0.288900
			CHANNELS 3 Zrotation Yrotation Xrotation
			JOINT Spine1
			{
				OFFSET 0.000000 1.950000 0.060000
				CHANNELS 3 Zrotation Yrotation Xrotation
				JOINT Neck
				{
					OFFSET 0.000000 0.000000 0.000000
					CHANNELS 3 Zrotation Yrotation Xrotation
					JOINT Neck1
					{
						OFFSET 0.000000 1.600000 0.340000
						CHANNELS 3 Zrotation Yrotation Xrotation
						JOINT Head
						{
							OFFSET 0.000000 1.667000 -0.240000
							CHANNELS 3 Zrotation Yrotation Xrotation
							End Site
							{
								OFFSET 0.000000 0.000000 0.000000
							}
						}
					}
				}
				JOINT LeftShoulder
				{
					OFFSET 0.000000 0.000000 0.000000
					CHANNELS 3 Zrotation Yrotation Xrotation
					JOINT LeftArm
					{
						OFFSET 2.700000 1.550000 -0.730000
						CHANNELS 3 Zrotation Yrotation Xrotation
						JOINT LeftForeArm
						{
							OFFSET 5.450000 0.000000 0.000000
							CHANNELS 3 Zrotation Yrotation Xrotation
							JOINT LeftHand
							{
								OFFSET 3.450000 0.000000 0.000000
								CHANNELS 3 Zrotation Yrotation Xrotation
								JOINT LeftHandIndex1
								{
									OFFSET 0.750000 0.000000 0.000000
									CHANNELS 3 Zrotation Yrotation Xrotation
									End Site
									{
										OFFSET 0.000000 0.000000 0.000000
									}
								}
							}
						}
					}
				}
				JOINT RightShoulder
				{
					OFFSET 0.000000 0.000000 0.000000
					CHANNELS 3 Zrotation Yrotation Xrotation
					JOINT RightArm
					{
						OFFSET -2.700000 1.550000 -0.730000
						CHANNELS 3 Zrotation Yrotation Xrotation
						JOINT RightForeArm
						{
							OFFSET -5.450000 0.000000 0.000000
							CHANNELS 3 Zrotation Yrotation Xrotation
							JOINT RightHand
							{
								OFFSET -3.450000 0.000000 0.000000
								CHANNELS 3 Zrotation Yrotation Xrotation
								JOINT RightHandIndex1
								{
									OFFSET -0.750000 0.000000 0.000000
									CHANNELS 3 Zrotation Yrotation Xrotation
									End Site
									{
										OFFSET 0.000000 0.000000 0.000000
									}
								}
							}
						}
					}
				}
			}
		}
	}
}
MOTION
Frames: 7
Frame Time: 0.016667
0.959710 16.920050 -1.703200 -5.976296 -35.853714 -3.708628 -15.477498 13.522644 3.977113 4.509577 2.679284 11.917245 -12.990169 5.620327 -5.294946 0.735811 5.376961 2.856388 0.294750 0.415040 0.088670 17.953699 -9.754869 3.117743 -8.117863 0.815196 -25.357016 7.442199 -2.233048 1.105715 0.170670 -2.011729 3.773028 0.216710 0.029530 -0.096940 -2.256710 -3.557742 -8.633801 0.743638 -2.703975 15.714972 1.816862 -2.856416 -1.123341 2.508336 -0.770040 -13.985451 -6.216731 -1.283289 41.888117 0.593420 -3.421440 -0.307480 -8.162936 -11.976148 3.028774 7.403688 -14.287164 -1.578468 10.730666 12.007713 0.283404 -4.090234 2.713233 0.048220 0.019010 0.009340 0.197700 4.313836 13.083904 11.799893 -4.939272 -10.160052 0.536501 -4.794019 1.898410 -0.458610 2.878821 -1.290145 -0.025200 0.047180 -0.291710 0.095100 
0.946790 16.923200 -1.701940 -6.014038 -35.767537 -3.556452 -15.480129 13.524479 3.970814 4.729250 2.569653 11.766088 -13.179927 5.664943 -5.098968 0.723470 5.392079 2.848221 0.304700 0.409290 0.112630 17.950042 -9.733997 3.142941 -7.850819 0.866227 -24.979607 7.201795 -2.097873 0.278568 0.158051 -1.998496 3.774570 0.215530 0.013710 -0.099170 -2.245027 -3.583993 -8.661722 0.570241 -2.866310 15.531761 1.977060 -3.027390 -1.668374 2.516866 -0.854573 -14.003762 -6.440660 -0.906503 42.439690 0.758890 -3.169450 -0.409990 -8.211592 -11.821949 3.172636 7.504482 -13.591103 -1.494153 10.758434 11.056352 0.233240 -4.056639 2.710546 0.070640 0.005340 0.016050 0.189080 4.400007 12.985528 11.580724 -5.532947 -9.797076 0.526304 -4.557700 2.302302 -0.448624 2.873186 -1.282802 -0.031720 0.043490 -0.295370 0.078710 
0.932540 16.926560 -1.699270 -5.747155 -35.720978 -3.610748 -15.471589 13.499305 3.954958 4.393244 2.636821 11.779742 -12.899686 5.650047 -4.970838 0.703072 5.355061 2.857166 0.294820 0.394040 0.120200 17.955623 -9.740643 3.189704 -7.776274 0.824070 -24.433743 6.833639 -1.932196 -1.044914 0.142900 -2.024008 3.770657 0.208960 0.009710 -0.105090 -2.269418 -3.509841 -8.691114 0.202058 -3.085660 15.269639 1.612766 -3.245309 -2.292976 2.642829 -0.602487 -14.156523 -5.938328 -0.472635 43.305457 0.745960 -2.479610 -0.202370 -8.163713 -11.822089 3.420866 8.178566 -12.403661 -1.492271 10.867244 9.332204 0.154942 -4.029803 2.687044 0.087790 0.003990 0.019790 0.179080 4.080699 12.807432 11.435948 -5.139266 -8.990359 0.497286 -4.008545 2.948457 -0.422052 2.863889 -1.257589 -0.045620 0.047380 -0.290400 0.065140 
0.916850 16.927760 -1.696460 -6.052964 -35.886864 -3.361030 -15.462180 13.504490 3.950823 4.694291 2.521918 11.677396 -12.979359 5.697559 -4.788294 0.698539 5.357572 2.847184 0.293750 0.382590 0.137260 17.962654 -9.722098 3.231866 -7.095141 0.962785 -24.012313 6.347080 -1.768640 -2.045536 0.129982 -1.999564 3.778006 0.197520 -0.015680 -0.104330 -2.291302 -3.526951 -8.736887 0.560263 -3.379722 15.059153 1.189971 -3.405447 -2.675142 2.903639 -0.684289 -14.452892 -6.189088 -0.075098 44.063004 0.401600 -1.948090 -0.054860 -8.152194 -11.802863 3.722236 8.011955 -11.119197 -1.428801 11.526323 7.512662 0.150653 -3.981928 2.693578 0.108780 -0.009990 0.033040 0.166110 3.547572 12.928523 11.495559 -5.056405 -8.783842 0.486651 -3.589648 3.822928 -0.373858 2.857583 -1.241986 -0.046240 0.031380 -0.292200 0.049530 
0.906270 16.934790 -1.692780 -6.281837 -36.412939 -3.187899 -15.458293 13.548725 3.952604 4.676304 2.497765 11.583418 -12.632917 5.703183 -4.571929 0.684603 5.321604 2.849821 0.292760 0.372170 0.160830 17.961614 -9.728983 3.246557 -6.333336 1.143279 -23.937826 5.720016 -1.688153 -2.205904 0.128823 -1.919598 3.809885 0.183650 -0.042190 -0.104290 -2.268410 -3.576336 -8.766243 0.836137 -3.308468 15.056883 1.213984 -3.217476 -3.488351 3.132463 -0.855229 -14.504630 -6.711329 0.131668 44.823459 -0.302000 -1.523410 -0.353520 -8.386750 -11.675078 3.741253 8.944141 -10.372718 -1.315886 10.583247 5.627748 0.046617 -3.932719 2.669991 0.131870 -0.023920 0.051830 0.150680 3.426573 13.070814 11.410285 -6.056729 -9.405734 0.534544 -3.127168 5.598108 -0.277217 2.821592 -1.228785 -0.044760 0.028370 -0.290800 0.032260 
0.898950 16.936820 -1.691980 -6.468754 -36.992236 -2.976772 -15.439023 13.569808 3.964367 4.690207 2.474884 11.471055 -12.545690 5.702362 -4.506609 0.692877 5.294315 2.860566 0.288770 0.365830 0.162900 17.971381 -9.742899 3.277850 -5.748747 1.312418 -24.110279 5.436341 -1.635029 -2.257247 0.129362 -1.856320 3.837976 0.169660 -0.047280 -0.104970 -2.294836 -3.570128 -8.804837 1.204641 -3.261392 15.329239 0.965298 -2.971033 -4.636506 3.238807 -1.023176 -14.677755 -7.143490 0.381629 45.290053 -0.227260 -1.445770 -0.326690 -8.532909 -11.705622 3.806858 9.714153 -9.667042 -1.254257 9.773301 4.225428 -0.000984 -3.894274 2.655911 0.141400 -0.033240 0.062550 0.151320 3.423474 13.363047 11.448392 -6.822625 -10.123811 0.587959 -2.298973 6.525136 -0.214641 2.810635 -1.218949 -0.040500 0.029420 -0.293240 0.033850 
0.893130 16.935480 -1.688160 -6.323200 -37.157185 -2.974876 -15.428263 13.585281 3.951452 4.454684 2.527722 11.268140 -12.415236 5.726406 -4.191555 0.689087 5.250658 2.867208 0.280750 0.358230 0.145810 17.974891 -9.748356 3.304988 -5.839368 1.326990 -24.293019 5.708336 -1.646746 -2.298597 0.128029 -1.858796 3.830399 0.159920 -0.049090 -0.099210 -2.310499 -3.571013 -8.812009 1.139584 -3.286060 15.329308 0.982132 -2.970923 -5.151632 3.178729 -1.307573 -14.835474 -7.745557 0.651664 45.286831 0.116550 -1.577330 -0.252480 -8.364838 -11.702919 3.965531 9.606814 -9.127431 -1.085342 8.922986 3.372028 -0.021195 -3.870440 2.669170 0.142630 -0.039420 0.063580 0.148910 3.436904 13.595035 11.464150 -7.441138 -10.498543 0.617365 -1.907236 6.986752 -0.174330 2.806297 -1.220775 -0.032690 0.018190 -0.283700 0.039270 
